<svg width="45" height="45" viewBox="0 0 45 45" fill="none" xmlns="http://www.w3.org/2000/svg">
<path d="M9.904 17.588H12.748V16.346H7.618C7.834 15.662 8.032 14.942 8.176 14.186L6.88 13.934C6.448 16.112 5.71 18.254 4.648 19.64C4.954 19.82 5.512 20.18 5.746 20.414C6.304 19.64 6.772 18.668 7.204 17.588H8.572V20.54C8.572 20.738 8.572 20.954 8.572 21.17H4.864V22.448H8.482C8.248 24.806 7.402 27.398 4.666 29.342C4.954 29.54 5.422 30.044 5.602 30.332C7.654 28.874 8.752 26.93 9.328 25.022C10.3 26.12 11.704 27.812 12.316 28.694L13.216 27.56C12.658 26.93 10.48 24.5 9.634 23.654C9.706 23.258 9.778 22.844 9.814 22.448H13.27V21.17H9.886C9.904 20.954 9.904 20.738 9.904 20.558V17.588ZM15.142 27.182V16.76H18.94V27.182H15.142ZM13.846 15.5V29.864H15.142V28.442H18.94V29.684H20.272V15.5H13.846ZM39.208 17.93C38.902 17.03 38.128 15.734 37.336 14.78L36.328 15.194C37.102 16.148 37.822 17.498 38.11 18.416L39.208 17.93ZM34.348 15.896H32.08V13.952H30.838V15.896H28.498V16.958H34.348V15.896ZM32.908 19.964C33.16 19.28 33.43 18.2 33.718 17.264L32.566 17.03C32.458 17.84 32.188 19.01 31.954 19.748L32.908 19.964ZM30.748 19.712C30.712 19.01 30.514 17.93 30.19 17.12L29.218 17.336C29.524 18.182 29.704 19.244 29.722 19.946L30.748 19.712ZM27.796 14.564H23.566V15.644H27.796V14.564ZM28.264 16.922H22.756V18.02H28.264V16.922ZM27.832 19.352H23.494V20.414H27.832V19.352ZM23.494 22.808H27.832V21.728H23.494V22.808ZM26.752 25.238V28.244H24.502V25.238H26.752ZM27.85 24.14H23.44V30.17H24.502V29.324H27.85V24.14ZM30.028 27.218V25.688H32.764V27.218H30.028ZM32.764 23.24V24.716H30.028V23.24H32.764ZM37.534 21.926C37.228 23.024 36.814 24.032 36.328 24.95C36.184 23.87 36.094 22.574 36.04 21.134H39.046V20.018H36.004C35.95 18.218 35.932 16.184 35.95 13.97H34.78C34.798 16.166 34.816 18.182 34.87 20.018H28.012V21.134H34.924C35.014 23.204 35.158 24.968 35.41 26.408C34.942 27.038 34.438 27.596 33.898 28.1V22.25H28.966V29.18H30.028V28.208H33.79C33.232 28.73 32.638 29.162 32.008 29.54C32.26 29.738 32.602 30.08 32.764 30.296C33.826 29.63 34.816 28.784 35.698 27.758C36.166 29.432 36.868 30.386 37.93 30.44C38.542 30.458 39.136 29.756 39.46 27.29C39.262 27.164 38.794 26.84 38.596 26.588C38.488 28.064 38.272 29 37.966 28.982C37.354 28.928 36.904 28.082 36.58 26.606C37.408 25.4 38.092 24.014 38.56 22.466L37.534 21.926Z" fill="#FF94AB"/>
</svg>
